<?xml version="1.0" standalone="no"?>
<!DOCTYPE svg PUBLIC "-//W3C//DTD SVG 20010904//EN"
 "http://www.w3.org/TR/2001/REC-SVG-20010904/DTD/svg10.dtd">
<svg version="1.0" xmlns="http://www.w3.org/2000/svg"
 width="512.000000pt" height="512.000000pt" viewBox="0 0 512.000000 512.000000"
 preserveAspectRatio="xMidYMid meet">

<g transform="translate(0.000000,512.000000) scale(0.100000,-0.100000)"
fill="#003087" stroke="none">
<path d="M1215 4936 c-46 -20 -82 -63 -100 -117 -14 -40 -24 -54 -51 -67 -32
-15 -37 -15 -87 4 -35 13 -77 19 -128 19 -65 0 -85 -5 -141 -33 -112 -55 -181
-156 -194 -281 -6 -52 -12 -66 -36 -86 -18 -16 -42 -25 -63 -25 -83 0 -167
-52 -211 -132 -37 -69 -41 -170 -7 -233 44 -82 115 -130 213 -144 93 -12 105
-29 105 -144 1 -123 21 -181 91 -256 63 -69 130 -101 220 -109 83 -6 153 12
226 61 62 41 106 50 135 26 8 -7 27 -38 43 -69 37 -72 114 -143 188 -170 46
-18 72 -21 137 -18 116 6 197 51 260 142 48 70 67 152 59 246 -5 66 -4 78 14
100 19 24 25 25 134 25 103 0 118 2 169 28 165 81 239 279 164 444 -43 96
-125 166 -225 193 -61 16 -76 32 -95 99 -44 150 -154 240 -307 249 -54 3 -90
0 -124 -12 -67 -23 -101 -20 -129 9 -20 20 -25 34 -25 78 0 133 -122 223 -235
173z"/>
<path d="M2786 4669 c-58 -45 -71 -114 -33 -170 83 -123 270 -36 225 105 -25
78 -130 113 -192 65z"/>
<path d="M4103 4555 c-29 -8 -72 -24 -95 -36 -58 -29 -140 -109 -171 -166 -45
-85 -109 -254 -117 -315 -25 -178 73 -359 239 -441 62 -30 71 -32 181 -32 111
0 118 1 183 33 128 64 201 164 282 394 24 69 27 88 23 171 -3 82 -8 103 -38
163 -90 183 -296 280 -487 229z"/>
<path d="M3554 4430 c-30 -12 -54 -49 -54 -83 0 -38 40 -77 80 -77 28 0 34 6
55 53 30 62 30 69 8 90 -24 21 -63 28 -89 17z"/>
<path d="M3695 3480 c-55 -8 -122 -47 -158 -92 -36 -45 -508 -1308 -532 -1423
-43 -209 0 -339 130 -401 49 -24 54 -24 380 -24 196 0 345 -4 367 -10 48 -14
97 -55 114 -97 11 -26 14 -140 14 -578 0 -602 -2 -585 63 -642 62 -55 149 -54
215 2 65 54 62 21 62 809 0 779 2 754 -56 807 -50 45 -78 49 -375 49 -277 0
-278 0 -305 23 -18 16 -27 34 -27 53 0 25 236 674 265 729 27 50 90 61 129 21
20 -20 32 -60 67 -223 58 -269 69 -305 105 -348 17 -21 53 -48 81 -61 50 -23
58 -24 334 -24 313 0 325 2 362 63 25 41 25 83 0 124 -32 53 -48 58 -255 63
-210 6 -244 15 -299 80 -33 40 -39 61 -136 494 -45 197 -89 375 -100 395 -37
72 -87 107 -250 173 -95 39 -136 47 -195 38z"/>
<path d="M2715 1363 c-11 -3 -30 -14 -42 -26 -20 -18 -23 -30 -23 -99 0 -70 3
-82 25 -103 l24 -25 571 0 570 0 0 130 0 130 -552 -1 c-304 -1 -562 -3 -573
-6z"/>
<path d="M3240 555 l0 -385 85 0 85 0 0 385 0 385 -85 0 -85 0 0 -385z"/>
</g>
</svg>
