<?xml version="1.0" standalone="no"?>
<!DOCTYPE svg PUBLIC "-//W3C//DTD SVG 20010904//EN"
 "http://www.w3.org/TR/2001/REC-SVG-20010904/DTD/svg10.dtd">
<svg version="1.0" xmlns="http://www.w3.org/2000/svg"
 width="512.000000pt" height="512.000000pt" viewBox="0 0 512.000000 512.000000"
 preserveAspectRatio="xMidYMid meet">

<g transform="translate(0.000000,512.000000) scale(0.100000,-0.100000)"
fill="#003087" stroke="none">
<path d="M1340 4934 c-135 -36 -239 -132 -289 -268 -28 -75 -39 -257 -22 -366
22 -147 111 -269 241 -333 62 -30 71 -32 180 -32 111 0 118 1 183 33 123 61
211 177 237 311 15 81 12 262 -6 341 -52 232 -293 376 -524 314z"/>
<path d="M985 3743 c-173 -38 -332 -152 -415 -297 -16 -29 -54 -120 -84 -202
-29 -82 -113 -309 -186 -504 -145 -389 -147 -398 -96 -465 50 -66 149 -71 211
-12 29 28 62 105 240 567 114 294 216 545 227 558 27 28 77 29 112 1 l27 -21
-3 -527 -4 -526 -207 -975 c-114 -536 -207 -989 -207 -1006 0 -51 40 -115 90
-141 75 -40 149 -26 207 40 28 31 38 64 96 304 272 1112 309 1253 335 1285 69
81 206 74 260 -14 12 -20 94 -334 202 -778 136 -556 189 -755 207 -783 27 -42
89 -77 138 -77 42 0 107 32 133 65 51 64 51 57 -65 610 -107 509 -107 510
-145 560 -56 73 -113 189 -144 290 -25 82 -28 104 -28 245 0 109 5 171 16 207
13 47 13 61 0 125 -11 57 -15 187 -19 580 l-4 507 25 26 c28 28 81 34 108 13
9 -7 107 -152 219 -323 111 -170 203 -311 205 -313 1 -2 31 6 66 16 71 22 252
47 268 37 5 -3 10 -3 10 2 -1 17 -348 596 -389 649 -95 122 -256 224 -415 264
-74 19 -111 20 -525 19 -245 -1 -455 -3 -466 -6z"/>
<path d="M2663 2639 c-159 -19 -290 -84 -410 -204 -67 -68 -89 -99 -126 -176
-54 -112 -77 -208 -77 -321 0 -157 63 -334 159 -450 21 -26 320 -332 664 -680
l625 -632 574 579 c316 319 615 623 664 676 134 144 196 279 211 459 10 134
-29 300 -99 418 -43 73 -168 198 -240 240 -215 126 -511 126 -726 0 -32 -18
-120 -95 -198 -171 -194 -190 -173 -189 -356 -11 -160 156 -209 191 -327 234
-64 24 -234 55 -261 49 -3 -1 -37 -5 -77 -10z"/>
</g>
</svg>
