<?xml version="1.0" standalone="no"?>
<!DOCTYPE svg PUBLIC "-//W3C//DTD SVG 20010904//EN"
 "http://www.w3.org/TR/2001/REC-SVG-20010904/DTD/svg10.dtd">
<svg version="1.0" xmlns="http://www.w3.org/2000/svg"
 width="512.000000pt" height="512.000000pt" viewBox="0 0 512.000000 512.000000"
 preserveAspectRatio="xMidYMid meet">

<g transform="translate(0.000000,512.000000) scale(0.100000,-0.100000)"
fill="#003087" stroke="none">
<path d="M1340 4934 c-135 -36 -239 -132 -289 -268 -28 -75 -39 -257 -22 -366
22 -147 111 -269 241 -333 62 -30 71 -32 180 -32 111 0 118 1 183 33 123 61
211 177 237 311 15 81 12 262 -6 341 -52 232 -293 376 -524 314z"/>
<path d="M1119 3735 c-42 -15 -158 -88 -414 -258 -251 -168 -282 -192 -306
-238 -21 -42 -139 -704 -139 -784 0 -132 172 -182 245 -71 8 12 42 157 75 322
33 164 67 317 75 340 20 52 59 89 169 158 101 63 134 69 172 31 l24 -25 -2
-802 -3 -803 -30 -55 c-17 -30 -205 -299 -417 -598 -263 -368 -389 -554 -394
-577 -15 -81 25 -152 104 -187 74 -33 148 -12 204 57 76 93 830 1120 838 1140
5 14 23 141 40 283 33 274 40 297 93 316 23 8 72 -10 338 -124 330 -141 356
-157 400 -240 24 -45 24 -47 27 -408 l3 -362 170 0 170 0 -3 468 -3 467 -28
57 c-48 98 -78 116 -498 308 -305 139 -386 180 -396 200 -10 19 -13 116 -13
387 0 361 0 362 23 387 12 15 37 29 54 32 32 6 40 0 186 -143 84 -83 171 -160
194 -172 40 -20 55 -21 346 -21 300 0 304 0 338 23 68 45 71 132 8 193 l-30
29 -247 5 c-253 6 -275 9 -334 51 -16 12 -119 123 -230 247 -273 308 -295 331
-353 358 -47 22 -60 24 -235 23 -129 0 -196 -4 -221 -14z"/>
<path d="M4145 2038 c-44 -23 -45 -32 -45 -270 0 -292 -8 -327 -91 -377 -33
-20 -47 -21 -440 -21 -271 0 -417 -4 -438 -11 -57 -20 -61 -42 -61 -304 0
-257 -4 -278 -56 -326 -52 -48 -68 -49 -550 -49 l-452 0 -26 -31 -26 -31 0
-224 0 -224 1466 0 1466 0 29 29 29 29 0 882 0 882 -29 29 -29 29 -364 0
c-243 -1 -370 -4 -383 -12z"/>
</g>
</svg>
