<?xml version="1.0" standalone="no"?>
<!DOCTYPE svg PUBLIC "-//W3C//DTD SVG 20010904//EN"
 "http://www.w3.org/TR/2001/REC-SVG-20010904/DTD/svg10.dtd">
<svg version="1.0" xmlns="http://www.w3.org/2000/svg"
 width="512.000000pt" height="512.000000pt" viewBox="0 0 512.000000 512.000000"
 preserveAspectRatio="xMidYMid meet">

<g transform="translate(0.000000,512.000000) scale(0.100000,-0.100000)"
fill="#003087" stroke="none">
<path d="M360 4941 c-69 -21 -131 -73 -166 -141 -16 -29 -19 -63 -22 -197 l-4
-163 2052 0 2052 0 -4 158 c-4 181 -18 224 -90 286 -83 71 67 66 -1962 65
-1007 0 -1842 -4 -1856 -8z m204 -183 c40 -35 43 -78 11 -116 -26 -31 -29 -32
-103 -32 -80 1 -100 8 -120 47 -19 35 -14 63 17 94 27 27 35 29 100 29 58 0
74 -4 95 -22z m415 7 c49 -25 57 -90 16 -130 -21 -22 -33 -25 -100 -25 -67 0
-79 3 -100 25 -41 40 -31 104 20 133 28 16 131 15 164 -3z m442 -14 c37 -38
39 -82 4 -116 -21 -22 -33 -25 -98 -25 -59 0 -80 4 -99 20 -32 24 -39 59 -22
99 16 39 42 50 122 50 57 1 66 -2 93 -28z m2624 19 c34 -13 59 -69 46 -104
-21 -54 -31 -56 -337 -56 -265 0 -283 1 -307 20 -48 38 -41 110 13 137 31 16
544 18 585 3z"/>
<path d="M170 2672 c0 -1771 -5 -1648 66 -1730 19 -22 55 -51 82 -64 l47 -23
623 -3 623 -3 -96 108 c-258 288 -415 624 -471 1003 -24 170 -15 470 20 636
157 739 721 1303 1460 1460 166 35 466 44 636 20 379 -56 715 -213 1003 -470
l107 -97 -2 378 -3 378 -2047 3 -2048 2 0 -1598z"/>
<path d="M2775 3919 c-532 -33 -1041 -342 -1325 -804 -350 -568 -336 -1289 35
-1845 288 -433 751 -704 1283 -752 221 -19 496 17 706 93 124 45 311 142 416
217 122 86 316 280 402 402 76 107 183 315 223 435 122 362 122 753 -2 1109
-187 541 -634 954 -1187 1096 -181 46 -351 61 -551 49z m175 -179 c10 -5 24
-25 30 -44 9 -28 8 -40 -4 -65 -20 -38 -54 -48 -186 -55 -314 -16 -635 -168
-870 -412 -178 -185 -283 -376 -348 -633 -25 -98 -27 -122 -27 -311 0 -189 2
-213 27 -311 46 -180 119 -342 216 -479 47 -66 208 -240 222 -240 5 0 15 21
24 46 42 123 168 285 277 354 27 18 49 34 49 36 0 2 -20 31 -44 64 -47 64 -81
151 -92 238 -6 50 -9 54 -62 90 -42 27 -64 51 -84 91 l-28 53 0 245 c0 183 4
263 16 321 61 300 276 541 572 643 95 33 101 34 262 33 154 0 171 -2 250 -28
155 -52 261 -117 366 -227 110 -116 178 -240 214 -391 17 -72 20 -118 20 -339
0 -277 -3 -295 -56 -358 -15 -18 -44 -41 -65 -51 -31 -16 -39 -27 -44 -57 -22
-131 -59 -223 -117 -289 -27 -31 -30 -37 -16 -45 130 -73 279 -254 320 -390 6
-22 15 -39 20 -39 5 0 41 33 80 72 186 189 311 427 370 702 30 143 29 369 -1
516 -52 248 -153 453 -316 642 -156 181 -382 326 -620 400 -55 17 -110 40
-122 51 -53 48 -12 137 63 137 55 0 231 -63 354 -126 440 -224 736 -634 821
-1134 17 -97 17 -364 0 -460 -59 -343 -200 -621 -435 -856 -418 -418 -1032
-559 -1590 -365 -497 172 -869 589 -993 1111 -37 155 -43 427 -15 595 56 324
193 588 431 826 233 233 499 374 811 429 115 20 291 26 320 10z"/>
<path d="M2732 3220 c-304 -82 -512 -350 -512 -660 l0 -75 17 34 c22 44 71 93
114 113 19 9 81 26 139 38 113 23 223 63 308 112 79 45 125 42 237 -14 97 -49
220 -92 300 -103 109 -17 171 -52 216 -123 l29 -46 0 80 c0 175 -67 331 -195
459 -142 142 -263 195 -460 201 -97 3 -134 0 -193 -16z"/>
<path d="M2810 2599 c-85 -43 -204 -83 -300 -99 -36 -7 -75 -16 -87 -22 -24
-12 -53 -74 -53 -114 0 -32 -42 -74 -73 -74 -37 0 -77 -36 -77 -70 0 -37 35
-70 72 -70 49 0 73 -35 87 -125 32 -206 60 -250 229 -363 151 -101 213 -125
307 -120 86 4 167 40 300 133 147 102 173 143 201 316 15 87 22 108 45 132 16
15 38 27 53 27 35 0 66 33 66 69 0 35 -21 59 -58 66 -68 14 -82 32 -97 117
-10 62 -30 77 -133 98 -120 24 -208 53 -306 101 -43 22 -83 38 -90 38 -6 -1
-45 -19 -86 -40z"/>
<path d="M2450 1475 c-101 -55 -101 -53 -21 -113 88 -66 191 -122 223 -122 30
0 58 29 92 97 l26 52 -48 15 c-26 9 -82 36 -124 61 -43 25 -78 45 -80 45 -2 0
-32 -16 -68 -35z"/>
<path d="M3222 1475 c-30 -18 -83 -46 -118 -62 -35 -15 -64 -31 -64 -36 0 -11
49 -97 68 -119 8 -10 28 -18 44 -18 33 0 134 56 227 126 57 43 61 48 46 64
-17 18 -97 64 -130 74 -13 3 -39 -7 -73 -29z"/>
<path d="M2221 1233 c-13 -27 -32 -73 -43 -103 -22 -65 -28 -57 101 -124 406
-208 868 -202 1280 18 40 22 75 45 78 52 5 13 -50 160 -70 188 -13 18 -18 15
-88 -36 -41 -31 -112 -77 -158 -104 -70 -41 -94 -49 -146 -52 -35 -2 -80 1
-100 8 -50 16 -109 71 -142 131 -14 27 -29 49 -33 49 -3 0 -14 -16 -24 -36
-48 -101 -127 -154 -229 -154 -47 0 -73 7 -119 30 -74 38 -157 90 -224 141
-28 22 -53 39 -55 39 -3 0 -15 -21 -28 -47z"/>
<path d="M4224 894 l-121 -123 303 -302 303 -302 38 6 c31 5 53 22 121 90 124
127 141 92 -220 453 l-303 301 -121 -123z"/>
</g>
</svg>
