<?xml version="1.0" standalone="no"?>
<!DOCTYPE svg PUBLIC "-//W3C//DTD SVG 20010904//EN"
 "http://www.w3.org/TR/2001/REC-SVG-20010904/DTD/svg10.dtd">
<svg version="1.0" xmlns="http://www.w3.org/2000/svg"
 width="512.000000pt" height="512.000000pt" viewBox="0 0 512.000000 512.000000"
 preserveAspectRatio="xMidYMid meet">

<g transform="translate(0.000000,512.000000) scale(0.100000,-0.100000)"
fill="#003087" stroke="none">
<path d="M1003 4935 c-154 -42 -273 -164 -307 -315 -18 -79 -21 -260 -6 -341
26 -134 114 -250 237 -311 65 -32 72 -33 183 -33 109 0 118 2 180 32 126 61
218 186 240 323 24 157 7 321 -44 426 -88 178 -292 270 -483 219z"/>
<path d="M2265 4938 c-45 -26 -44 -20 -45 -525 l0 -483 385 0 385 0 0 100 c0
94 2 103 25 125 31 32 75 32 112 1 27 -24 28 -27 31 -145 2 -67 7 -121 12
-121 4 0 30 -20 58 -45 84 -76 119 -192 88 -296 -19 -68 -63 -130 -116 -165
l-40 -27 0 -106 c0 -117 -10 -149 -54 -169 -33 -17 -69 -9 -96 20 -17 19 -20
35 -20 125 l0 103 -170 0 -170 0 0 -85 c0 -103 -15 -147 -59 -164 -25 -11 -37
-11 -62 0 -44 17 -59 61 -59 164 l0 85 -125 0 -125 0 0 -186 0 -186 29 -29 29
-29 1307 0 1307 0 29 29 29 29 0 967 0 967 -29 29 -29 29 -1304 0 c-961 -1
-1308 -4 -1323 -12z m798 -214 c18 -9 200 -183 405 -387 l372 -372 275 275
c194 193 270 276 258 278 -49 8 -64 14 -83 34 -28 31 -26 83 5 113 24 24 27
25 185 25 158 0 161 -1 185 -25 24 -24 25 -27 25 -185 0 -158 -1 -161 -25
-185 -56 -57 -145 -13 -145 71 0 25 -36 -7 -292 -263 -313 -310 -327 -321
-410 -310 -22 3 -56 17 -76 31 -20 14 -199 188 -397 386 l-360 360 -235 -235
c-207 -206 -240 -235 -267 -235 -17 0 -39 3 -48 6 -20 8 -45 55 -45 86 0 16
70 92 243 266 133 134 256 253 272 263 37 24 114 25 158 3z m1605 -657 l22
-20 0 -462 c0 -450 -1 -462 -20 -483 -41 -44 -110 -35 -137 18 -18 35 -19 887
-1 926 14 31 63 56 93 47 11 -3 30 -15 43 -26z m-1027 -426 l29 -29 0 -241 c0
-235 -1 -240 -22 -265 -13 -15 -37 -29 -55 -32 -27 -5 -37 -1 -63 24 l-30 30
0 244 c1 253 2 261 45 286 33 19 65 13 96 -17z m492 17 c45 -24 46 -31 47
-286 l0 -244 -30 -30 c-26 -25 -36 -29 -63 -24 -18 3 -42 17 -54 32 -22 25
-23 30 -23 265 l0 241 29 29 c31 31 59 36 94 17z"/>
<path d="M688 3735 c-222 -54 -408 -230 -486 -460 l-27 -80 -3 -563 c-3 -503
-1 -566 13 -596 46 -97 177 -94 227 5 16 31 18 78 18 550 0 504 0 516 20 537
41 44 110 35 137 -18 10 -20 13 -311 13 -1396 l0 -1372 28 -53 c64 -122 218
-155 318 -67 73 64 68 13 74 806 l5 714 28 24 c34 29 76 31 110 4 l26 -21 3
-707 c3 -790 -1 -745 76 -814 67 -61 147 -73 222 -35 l45 22 5 230 6 230 37
108 37 109 0 1275 0 1275 29 29 29 29 694 0 c660 0 694 1 724 19 71 43 80 137
19 198 l-33 33 -826 0 -825 0 -9 -32 c-5 -18 -19 -76 -32 -129 l-23 -96 43
-326 c26 -202 40 -339 36 -362 -10 -51 -51 -92 -169 -168 -158 -101 -183 -101
-339 2 -117 76 -154 115 -164 169 -5 24 8 152 35 362 l43 325 -32 128 c-37
143 -29 137 -132 112z"/>
<path d="M970 3738 c0 -7 9 -44 18 -83 l18 -70 104 0 104 0 18 70 c9 39 18 76
18 83 0 9 -35 12 -140 12 -105 0 -140 -3 -140 -12z"/>
<path d="M1010 3398 c0 -7 -16 -132 -35 -277 -19 -145 -35 -267 -35 -271 0 -4
38 -32 84 -63 l84 -56 87 56 c78 50 86 58 81 82 -3 14 -20 142 -37 284 l-33
257 -98 0 c-72 0 -98 -3 -98 -12z"/>
<path d="M2545 2376 c-153 -38 -279 -165 -314 -317 -6 -24 -11 -108 -11 -185
0 -114 4 -155 20 -206 37 -120 113 -207 229 -262 62 -29 73 -31 177 -31 107 0
112 1 186 38 91 45 157 112 202 207 30 63 31 69 34 232 4 148 2 176 -17 237
-65 213 -289 341 -506 287z"/>
<path d="M3900 2374 c-135 -36 -239 -132 -289 -268 -28 -75 -39 -257 -22 -366
22 -147 111 -269 241 -333 62 -30 71 -32 180 -32 111 0 118 1 183 33 123 61
211 177 237 311 15 81 12 262 -6 341 -52 232 -293 376 -524 314z"/>
<path d="M2212 1170 c-118 -31 -206 -83 -302 -180 -69 -68 -94 -102 -128 -170
-63 -129 -72 -181 -72 -432 l0 -218 125 0 125 0 0 178 c0 193 6 218 54 240 33
17 69 9 96 -20 19 -20 20 -35 20 -210 l0 -188 385 0 385 0 0 199 c0 133 5 227
15 286 28 158 95 298 206 426 l48 56 -26 12 c-77 35 -145 41 -503 40 -316 0
-363 -2 -428 -19z"/>
<path d="M3595 1175 c-181 -49 -319 -148 -414 -295 -87 -134 -110 -244 -111
-517 l0 -193 130 0 130 0 0 189 0 189 32 27 c38 32 81 29 116 -11 21 -24 22
-33 22 -210 l0 -184 510 0 510 0 0 178 c0 193 6 218 54 240 33 17 69 9 96 -20
19 -20 20 -35 20 -210 l0 -188 131 0 131 0 -4 233 c-4 219 -6 237 -31 312 -37
112 -90 198 -173 280 -81 80 -151 125 -256 163 l-73 27 -385 2 c-301 2 -396
-1 -435 -12z"/>
</g>
</svg>
