<?xml version="1.0" standalone="no"?>
<!DOCTYPE svg PUBLIC "-//W3C//DTD SVG 20010904//EN"
 "http://www.w3.org/TR/2001/REC-SVG-20010904/DTD/svg10.dtd">
<svg version="1.0" xmlns="http://www.w3.org/2000/svg"
 width="512.000000pt" height="512.000000pt" viewBox="0 0 512.000000 512.000000"
 preserveAspectRatio="xMidYMid meet">

<g transform="translate(0.000000,512.000000) scale(0.100000,-0.100000)"
fill="#003087" stroke="none">
<path d="M2335 4934 c-40 -8 -110 -33 -165 -60 -169 -84 -306 -250 -354 -429
-9 -33 -19 -109 -22 -170 l-5 -110 31 62 c38 77 121 155 187 177 27 8 85 20
131 25 141 18 228 51 324 124 92 70 103 71 188 6 103 -78 192 -113 327 -129
48 -6 109 -18 136 -26 66 -22 149 -100 187 -177 l31 -62 -5 110 c-7 133 -25
205 -78 307 -94 182 -273 315 -475 354 -94 18 -343 17 -438 -2z"/>
<path d="M2529 4390 c-81 -61 -277 -130 -369 -130 -100 0 -182 -60 -194 -140
-4 -25 -10 -53 -12 -63 -6 -20 -54 -47 -84 -47 -31 0 -80 -53 -80 -85 0 -38
50 -85 90 -85 51 0 76 -34 84 -118 16 -162 72 -295 168 -398 102 -109 246
-164 428 -164 182 0 326 55 428 164 96 103 151 235 168 400 8 82 33 116 84
116 40 0 90 47 90 85 0 32 -49 85 -80 85 -30 0 -78 27 -84 47 -2 10 -8 38 -11
62 -11 67 -64 119 -135 131 -235 39 -300 59 -408 127 -29 18 -53 33 -55 33 -1
0 -14 -9 -28 -20z"/>
<path d="M2390 2972 c0 -36 36 -98 72 -124 47 -33 149 -33 196 0 36 26 72 88
72 124 l0 23 -170 0 -170 0 0 -23z"/>
<path d="M2124 2884 c-198 -33 -387 -131 -538 -278 -78 -77 -170 -207 -211
-299 l-24 -55 28 -26 28 -27 94 12 c101 12 324 7 511 -12 l107 -11 32 26 c66
56 128 79 219 84 82 4 90 2 220 -46 269 -100 414 -126 699 -127 200 0 215 1
225 19 37 63 76 104 125 129 30 15 65 27 78 27 33 0 29 16 -23 100 -173 281
-439 455 -756 494 l-47 5 -24 -53 c-66 -143 -208 -219 -364 -194 -110 17 -201
88 -250 194 -13 30 -30 54 -36 53 -7 -1 -48 -7 -93 -15z"/>
<path d="M170 1490 l0 -640 449 0 c262 0 460 4 475 10 14 5 32 19 40 32 9 15
36 209 80 588 37 311 66 573 66 583 0 10 -11 29 -25 42 l-24 25 -531 0 -530 0
0 -640z"/>
<path d="M2299 2107 c-20 -12 -129 -105 -243 -206 -232 -208 -250 -234 -227
-313 23 -75 92 -117 169 -102 33 7 76 42 259 211 61 55 126 109 144 119 47 26
171 26 219 0 144 -76 786 -670 841 -778 11 -22 26 -38 32 -35 7 2 36 13 65 23
40 14 52 24 52 39 0 11 -22 212 -50 445 -27 234 -50 430 -50 435 0 6 -81 10
-222 11 -299 0 -493 35 -754 134 -123 47 -180 51 -235 17z"/>
<path d="M3695 2105 c-14 -13 -25 -34 -25 -46 0 -13 30 -275 66 -583 44 -374
71 -569 80 -584 8 -13 26 -27 40 -32 15 -6 244 -10 560 -10 l534 0 0 640 0
640 -615 0 -616 0 -24 -25z"/>
<path d="M1508 2041 c-26 -4 -50 -9 -53 -12 -3 -3 -32 -235 -65 -515 -32 -280
-61 -522 -63 -539 -4 -29 -1 -31 112 -87 64 -32 154 -87 201 -122 112 -85 281
-257 428 -436 99 -122 124 -146 154 -154 96 -24 165 83 108 169 -43 65 -8 135
69 135 37 0 44 -5 83 -54 73 -92 140 -108 193 -44 31 37 32 76 4 144 -19 46
-20 54 -8 80 17 35 61 58 96 49 14 -3 43 -26 65 -50 48 -53 90 -65 137 -41 33
18 61 62 61 98 0 13 -9 38 -20 56 -27 44 -26 93 3 119 44 40 81 37 139 -12 43
-36 105 -35 141 3 35 36 43 81 23 120 -39 75 -488 499 -705 666 -105 80 -106
80 -253 -56 -248 -231 -266 -242 -393 -242 -68 0 -88 4 -135 28 -99 49 -149
117 -173 231 -10 47 -9 66 6 121 23 87 56 133 176 238 55 48 101 92 101 96 0
15 -337 24 -432 11z"/>
</g>
</svg>
