<?xml version="1.0" standalone="no"?>
<!DOCTYPE svg PUBLIC "-//W3C//DTD SVG 20010904//EN"
 "http://www.w3.org/TR/2001/REC-SVG-20010904/DTD/svg10.dtd">
<svg version="1.0" xmlns="http://www.w3.org/2000/svg"
 width="512.000000pt" height="512.000000pt" viewBox="0 0 512.000000 512.000000"
 preserveAspectRatio="xMidYMid meet">

<g transform="translate(0.000000,512.000000) scale(0.100000,-0.100000)"
fill="#003087" stroke="none">
<path d="M1540 4935 c-62 -19 -113 -65 -144 -127 l-26 -52 0 -915 0 -916 47
-25 c129 -68 249 -243 278 -405 18 -99 18 -276 1 -372 l-12 -73 407 0 408 0
28 -24 28 -24 5 -258 5 -257 27 -20 c17 -13 34 -18 50 -14 12 4 180 135 371
292 192 157 357 289 367 295 12 6 260 10 688 10 725 0 713 -1 786 55 18 14 46
49 62 77 l29 53 0 1265 c0 1215 -1 1266 -19 1300 -26 49 -74 98 -121 123 l-40
22 -1590 2 c-1341 1 -1597 0 -1635 -12z m477 -179 c24 -21 28 -32 31 -94 4
-66 6 -71 31 -77 36 -8 123 -69 148 -103 56 -76 86 -181 69 -246 -8 -33 -58
-59 -96 -51 -40 9 -60 35 -69 92 -18 115 -108 181 -210 153 -114 -30 -162
-155 -99 -258 26 -43 78 -68 159 -76 123 -13 231 -85 287 -191 24 -45 27 -61
27 -150 0 -89 -3 -106 -27 -150 -33 -64 -109 -135 -169 -160 l-47 -19 -4 -68
c-4 -76 -22 -103 -74 -114 -24 -4 -37 0 -62 21 -30 25 -32 31 -32 91 l0 64
-52 24 c-112 50 -190 157 -204 278 -6 54 -5 58 24 87 34 34 59 38 101 16 31
-16 41 -33 41 -73 1 -103 113 -188 212 -161 145 38 175 221 50 306 -20 13 -56
24 -90 28 -136 14 -231 68 -289 164 -106 177 -36 401 153 488 l54 24 0 62 c1
63 10 85 45 105 31 18 62 14 92 -12z m2626 -158 c53 -28 64 -92 22 -133 l-24
-25 -1016 0 -1016 0 -24 25 c-35 34 -33 78 4 116 l29 29 1002 0 c742 0 1007
-3 1023 -12z m21 -527 c33 -31 35 -85 4 -118 l-21 -23 -1019 0 -1019 0 -24 25
c-15 14 -25 36 -25 53 0 35 32 79 63 85 12 2 471 4 1019 3 l996 -1 26 -24z m5
-517 c29 -37 27 -85 -5 -115 l-26 -24 -1015 0 -1015 0 -24 28 c-31 37 -31 81
1 112 l24 25 1020 0 1020 0 20 -26z m-4 -509 c25 -24 32 -65 19 -100 -18 -46
28 -45 -1448 -45 l-1385 0 -25 23 c-40 34 -43 77 -11 115 l27 32 1399 0 1400
0 24 -25z m0 -510 c34 -33 34 -87 0 -120 l-24 -25 -1396 0 -1397 0 -29 29
c-17 18 -29 40 -29 56 0 16 12 38 29 56 l29 29 1397 0 1396 0 24 -25z"/>
<path d="M1043 2810 c-172 -26 -319 -170 -353 -349 -13 -71 -13 -257 1 -323
48 -225 262 -377 481 -340 194 33 332 177 360 374 13 92 4 277 -17 345 -59
194 -268 323 -472 293z"/>
<path d="M690 1600 c-128 -33 -214 -83 -311 -180 -94 -94 -134 -155 -176 -275
l-28 -80 -3 -418 -3 -417 30 -30 c29 -29 32 -30 130 -30 l101 0 0 399 c0 388
1 399 21 425 15 19 30 26 54 26 95 0 95 2 95 -460 l0 -390 510 0 510 0 0 390
c0 411 3 437 45 454 35 13 76 6 100 -19 l25 -24 0 -401 0 -400 99 0 c91 0 102
2 128 24 l28 24 0 414 c0 466 -1 473 -78 623 -51 100 -171 225 -267 277 -63
35 -158 69 -231 82 l-37 6 -32 -132 -33 -133 42 -315 c23 -173 41 -326 41
-339 0 -14 -9 -44 -21 -68 -17 -35 -41 -56 -137 -120 -117 -78 -117 -78 -183
-78 -67 0 -67 0 -183 78 -124 84 -156 122 -156 189 0 18 18 174 41 346 l41
313 -32 130 c-18 72 -37 129 -44 128 -6 0 -45 -9 -86 -19z"/>
<path d="M983 1535 l21 -86 105 3 105 3 18 70 c9 39 18 76 18 83 0 9 -35 12
-144 12 l-143 0 20 -85z"/>
<path d="M1010 1266 c0 -7 -16 -132 -35 -277 -19 -145 -35 -267 -35 -271 0 -5
38 -33 85 -64 l85 -57 86 57 c72 48 85 61 81 79 -3 12 -20 140 -38 285 l-33
262 -98 0 c-77 0 -98 -3 -98 -14z"/>
</g>
</svg>
